<svg id="Layer_1" data-name="Layer 1" xmlns="http://www.w3.org/2000/svg" viewBox="0 0 600 600"><defs><style>.cls-1{fill:#f2f2f0;}.cls-2{fill:#7dc46f;}.cls-3{fill:#5ebb55;}.cls-4{fill:#49a948;}.cls-5{fill:#f89e1c;}.cls-6{fill:#fab616;}.cls-7{fill:#2f3030;}.cls-8{fill:#f0554b;}.cls-9{fill:#1c1b1b;}.cls-10{fill:#f26843;}</style></defs><path class="cls-1" d="M347.67,483c0,8.3-23.3,15-52,15s-52-6.71-52-15,23.3-15,52-15S347.67,474.69,347.67,483Z"/><path class="cls-2" d="M328.41,145.4c-4,33.84-14.53,60.42-23.57,59.35s-13.11-29.36-9.13-63.2,12.36-68.23,25.86-78.8C333.16,77.88,332.4,111.56,328.41,145.4Z"/><path class="cls-3" d="M284.41,167c-.1-3.75-.33-7.69-.82-11.73-2.74-23.1-13.27-38.8-32-57.15,22.72,0,44,12.35,54.25,32.56,8.37,16.51,8.79,32.48,4.93,44.87C307.55,185.89,285,188.65,284.41,167Z"/><path class="cls-3" d="M336.77,170.34c.61-3.69,1.36-7.57,2.37-11.53,5.77-22.66,18.08-37.61,38.7-54.76-22-1.14-44.26,9.92-56.9,29.34-10.33,15.86-12.89,31.6-10.83,44C311.83,187.79,333.3,191.68,336.77,170.34Z"/><path class="cls-4" d="M283.25,178.14c-1.65-3-3.51-6.08-5.62-9.22-12.11-17.87-28.11-27.89-52.58-38,20.39-5.55,44.63-.9,62.26,12.82,14.39,11.19,21.44,23.92,23.15,34.82C311.9,187.63,292.81,195.39,283.25,178.14Z"/><path class="cls-4" d="M336,183.2c2-2.74,4.14-5.58,6.58-8.4,14-16.12,30.94-23.93,56.34-30.72a72.3,72.3,0,0,0-63.2,4.4c-15.51,9.2-23.89,20.89-26.78,31.48C306.55,188.79,324.66,199,336,183.2Z"/><path class="cls-5" d="M381.27,316.72c-6.9,58.58-49.59,78-98.75,72.26s-86.16-34.65-79.26-93.23c5.37-45.51,32.49-94.28,68.76-111.36,10.41-4.9,24-4.74,35-3.45,11.4,1.35,26.18,3.78,35.44,11.47C373.1,217.84,386.57,271.74,381.27,316.72Z"/><path class="cls-6" d="M381.55,314.11c.39-3.95.65-8,.76-12L354.69,323.9l-22.31-28.27,28.27-22.31,21.7,27.5c.1-4.91,0-9.87-.3-14.83l-14.38-18.22,10.72-8.46q-1-4.83-2.34-9.56l-13.92,11-22.31-28.26,21.79-17.2q-2.34-3.92-5-7.5l-22.38,17.67L312,197.18l15.58-12.3a89.94,89.94,0,0,0-11.15-2.6l-10,7.87-7.81-9.89a80.92,80.92,0,0,0-11.21.25l12,15.19L271.11,218l-17.26-21.87c-2.27,1.88-4.5,3.89-6.66,6l16.9,21.41-28.27,22.31-11.13-14.11q-2.43,4.22-4.63,8.6l8.73,11-19.27,15.21a165.87,165.87,0,0,0-5.79,25.62l17.62,22.33-17.07,13.48a74,74,0,0,0,2.58,9.37l20-15.82,22.31,28.26-22,17.36a78.09,78.09,0,0,0,7.4,5.56l20.14-15.89,22.3,28.27-3.2,2.53q4.26.76,8.66,1.29c3.23.38,6.44.65,9.61.81l-2.49-3.15,28.27-22.31,15.61,19.78a74.4,74.4,0,0,0,8.44-3.76l-17-21.57,28.27-22.31,15.26,19.34a75.35,75.35,0,0,0,4.62-8.59l-12.86-16.29ZM355.1,266.29,326.83,288.6l-22.31-28.27L332.79,238Zm-35.3,27.86-28.27,22.31-22.31-28.27,28.27-22.31Zm-14.87-91.42L327.24,231,299,253.31,276.66,225Zm-35.3,27.85,22.31,28.27-28.26,22.31-22.32-28.27Zm-63.56,50.17,28.27-22.31,22.31,28.27L228.38,309Zm50.17,63.57-22.32-28.27,28.27-22.31L284.5,322Zm27.86,35.29-22.32-28.27L290.05,329l22.31,28.27Zm35.29-27.85-22.31-28.27,28.27-22.31,22.31,28.27Z"/><path class="cls-7" d="M366.07,406.12a4.73,4.73,0,0,1-2-.44c-3-1.41-3.59-5.67-4.45-11.58-.45-3.08-.95-6.57-1.86-10.35-1.06-4.39-2.79-7.19-5.27-8.56-5.08-2.81-13.65-.25-27.16,4.31a1.5,1.5,0,0,1-1-2.85c14.29-4.81,23.41-7.49,29.57-4.09,3.26,1.8,5.46,5.23,6.73,10.49.95,3.92,1.46,7.48,1.92,10.62.67,4.61,1.24,8.58,2.77,9.3.68.33,2.23.27,5.72-1.83a1.5,1.5,0,1,1,1.55,2.57C369.89,405.33,367.79,406.12,366.07,406.12Z"/><path class="cls-7" d="M283.22,431.77a1.51,1.51,0,0,1-.46-.07,1.49,1.49,0,0,1-1-1.88c1.19-3.73,1.37-6.16.55-7.43-1.07-1.65-4.43-2-8.68-2.51a87.28,87.28,0,0,1-9.9-1.56c-16-3.68-14.17-18.53-11.44-41a1.5,1.5,0,1,1,3,.36c-2.85,23.41-3.65,34.8,9.13,37.74a82.83,82.83,0,0,0,9.57,1.49c5.24.6,9,1,10.86,3.87,1.38,2.13,1.31,5.2-.21,10A1.49,1.49,0,0,1,283.22,431.77Z"/><path class="cls-7" d="M369.65,290.81a1.5,1.5,0,0,1-.4-2.94c13.14-3.64,18.92-8,27.66-14.61,4.17-3.16,8.9-6.73,15.36-10.93a1.5,1.5,0,0,1,1.63,2.52c-6.36,4.14-11,7.68-15.18,10.8-8.7,6.57-15,11.31-28.67,15.11A1.83,1.83,0,0,1,369.65,290.81Z"/><path class="cls-7" d="M412.22,265.58a1.45,1.45,0,0,1-.88-2.6l9.9-7.6a1.45,1.45,0,0,1,1.76,2.3l-9.9,7.6A1.44,1.44,0,0,1,412.22,265.58Z"/><path class="cls-7" d="M424.24,267.65l-.2,0-13.66-1.85-.79-12.62a1.45,1.45,0,1,1,2.89-.18l.64,10.25,11.31,1.53a1.45,1.45,0,0,1-.19,2.89Z"/><path class="cls-7" d="M409.3,263.17a3.64,3.64,0,1,1,3,4.18A3.64,3.64,0,0,1,409.3,263.17Z"/><path class="cls-7" d="M208.48,278.52a1.51,1.51,0,0,1-1-.37c-11-9.58-13.88-13.78-18.63-20.74-2.44-3.58-5.48-8-10.46-14.43a1.5,1.5,0,1,1,2.37-1.85c5,6.47,8.11,11,10.57,14.59,4.77,7,7.39,10.84,18.12,20.17a1.49,1.49,0,0,1,.15,2.11A1.47,1.47,0,0,1,208.48,278.52Z"/><path class="cls-7" d="M180.23,244.29a1.45,1.45,0,0,1-1.26-.73l-6.35-11.16a1.44,1.44,0,0,1,2.51-1.43l6.36,11.16a1.45,1.45,0,0,1-1.26,2.16Z"/><path class="cls-7" d="M181.49,244.91,167,243.43a1.45,1.45,0,0,1,.29-2.88l12.34,1.25L183.86,231a1.45,1.45,0,0,1,2.7,1.06Z"/><path class="cls-7" d="M183.8,242.93a3.64,3.64,0,1,0-4.22,3A3.63,3.63,0,0,0,183.8,242.93Z"/><path class="cls-8" d="M327.66,312.12c.24,3.66,5.9,6.28,12.65,5.84s12-3.76,11.8-7.42-5.9-6.28-12.65-5.84S327.42,308.45,327.66,312.12Z"/><path class="cls-8" d="M220.17,299.79c-.5,3.64,4.29,7.3,10.69,8.17s12-1.37,12.5-5-4.3-7.3-10.7-8.17S220.66,296.16,220.17,299.79Z"/><path class="cls-9" d="M262.05,320a64.6,64.6,0,0,0,8.06,13.75,32.53,32.53,0,0,0,4.58,4.73c4,3.39,7.77,4.43,10.79,4.5,5.36.11,10.2-2.76,14-7.13a37.45,37.45,0,0,0,7.95-15.14,1.31,1.31,0,0,0-.15-1.12,1.09,1.09,0,0,0-.88-.53l-43.36-.92a1.1,1.1,0,0,0-1,.61A1.32,1.32,0,0,0,262.05,320Z"/><path class="cls-10" d="M276.43,339.77a16.41,16.41,0,0,0,9.05,3.16c5.36.11,10.2-2.76,14-7.13-3.41-3.68-9-4.61-15.16-3C279.53,334.08,276.43,339.77,276.43,339.77Z"/><path class="cls-7" d="M271.72,297.46a1.06,1.06,0,0,1-1.06-.92c-1.3-9-9.45-9.13-11.91-9-5.43.39-11.25,3.69-11.25,8a1.08,1.08,0,1,1-2.15,0c0-5.66,6.87-9.66,13.24-10.12,6-.44,13,2.17,14.2,10.78a1.08,1.08,0,0,1-.91,1.22Z"/><path class="cls-7" d="M327.87,302.64a1.07,1.07,0,0,1-1.06-.93c-.7-4.84-4.68-8.46-10.16-9.23-4.66-.65-11.16.94-14.12,7.56a1.07,1.07,0,0,1-1.42.54,1.08,1.08,0,0,1-.54-1.42,15.17,15.17,0,0,1,16.37-8.81c6.46.9,11.16,5.24,12,11.06a1.07,1.07,0,0,1-.92,1.21Z"/></svg>