<svg id="Layer_1" data-name="Layer 1" xmlns="http://www.w3.org/2000/svg" viewBox="0 0 450 450"><defs><style>.cls-1{fill:#f2f2f0;}.cls-2{fill:#7dc46f;}.cls-3{fill:#5ebb55;}.cls-4{fill:#49a948;}.cls-5{fill:#f89e1c;}.cls-6{fill:#fab616;}.cls-7{fill:#2f3030;}.cls-8{fill:#f0554b;}.cls-9{fill:#1c1b1b;}.cls-10{fill:#f26843;}</style></defs><path class="cls-1" d="M268.8,428.2c0,8.3-23.3,15-52,15s-52-6.71-52-15,23.3-15,52-15S268.8,419.92,268.8,428.2Z"/><path class="cls-2" d="M249.54,90.63C245.55,124.47,235,151.05,226,150s-13.11-29.36-9.13-63.2S229.2,18.55,242.7,8C254.29,23.11,253.53,56.79,249.54,90.63Z"/><path class="cls-3" d="M205.54,112.23c-.1-3.75-.33-7.69-.81-11.73-2.75-23.1-13.28-38.8-32-57.15,22.72,0,44,12.35,54.25,32.56,8.37,16.51,8.79,32.48,4.93,44.87C228.68,131.12,206.12,133.88,205.54,112.23Z"/><path class="cls-3" d="M257.9,115.57c.61-3.69,1.36-7.57,2.37-11.53C266,81.38,278.35,66.43,299,49.28c-22-1.14-44.26,9.92-56.9,29.34-10.33,15.86-12.89,31.6-10.83,44C233,133,254.43,136.91,257.9,115.57Z"/><path class="cls-4" d="M204.38,123.37c-1.65-3-3.51-6.08-5.62-9.22-12.11-17.87-28.11-27.89-52.58-38,20.39-5.55,44.63-.9,62.26,12.82,14.39,11.19,21.44,23.91,23.15,34.82C233,132.86,213.94,140.62,204.38,123.37Z"/><path class="cls-4" d="M257.15,128.43c2-2.74,4.14-5.58,6.58-8.4,14-16.12,30.94-23.93,56.34-30.72a72.3,72.3,0,0,0-63.2,4.4c-15.51,9.2-23.89,20.88-26.78,31.48C227.68,134,245.79,144.27,257.15,128.43Z"/><path class="cls-5" d="M302.4,262c-6.9,58.58-49.59,78.05-98.75,72.26S117.49,299.56,124.39,241c5.37-45.51,32.49-94.28,68.76-111.36,10.41-4.9,24-4.74,35-3.45,11.41,1.35,26.18,3.78,35.44,11.47C294.23,163.07,307.7,217,302.4,262Z"/><path class="cls-6" d="M302.68,259.34q.58-5.94.77-12l-27.63,21.81-22.31-28.27,28.27-22.31,21.7,27.5c.1-4.91,0-9.87-.3-14.83L288.8,213l10.72-8.46q-1-4.83-2.34-9.56l-13.92,11L261,177.71l21.79-17.2q-2.34-3.91-5-7.5L255.4,170.68l-22.31-28.27,15.58-12.3a89.94,89.94,0,0,0-11.15-2.6l-10,7.87-7.81-9.89a82.49,82.49,0,0,0-11.21.24l12,15.2-28.27,22.31L175,141.37q-3.4,2.82-6.66,6l16.9,21.41L157,191.1,145.82,177q-2.43,4.22-4.63,8.6l8.73,11-19.27,15.21a165.87,165.87,0,0,0-5.79,25.62l17.62,22.33-17.07,13.48a73.87,73.87,0,0,0,2.58,9.36l20-15.81,22.31,28.26-22,17.36a78.09,78.09,0,0,0,7.4,5.56l20.14-15.89,22.31,28.27L195,332.92q4.26.76,8.66,1.29c3.23.38,6.44.65,9.61.81l-2.49-3.15L239,309.56l15.61,19.78a74.4,74.4,0,0,0,8.44-3.76l-17-21.57,28.27-22.31L289.6,301a75.35,75.35,0,0,0,4.62-8.59l-12.86-16.29Zm-26.45-47.82L248,233.83l-22.31-28.27,28.27-22.31Zm-35.3,27.86-28.27,22.31-22.31-28.27,28.27-22.31ZM226.06,148l22.31,28.26L220.1,198.53l-22.31-28.26Zm-35.3,27.85,22.31,28.27-28.26,22.31-22.32-28.27ZM127.2,226l28.27-22.31,22.31,28.27-28.27,22.31Zm50.17,63.57-22.31-28.27L183.32,239l22.31,28.27Zm27.86,35.29-22.32-28.27,28.27-22.31,22.31,28.27ZM240.52,297l-22.31-28.27,28.27-22.31,22.31,28.27Z"/><path class="cls-7" d="M287.2,351.35a4.73,4.73,0,0,1-2-.44c-3-1.41-3.59-5.67-4.45-11.58-.44-3.08-.95-6.57-1.86-10.35-1.06-4.39-2.78-7.19-5.27-8.56-5.08-2.81-13.65-.25-27.16,4.31a1.5,1.5,0,0,1-1-2.85c14.29-4.81,23.41-7.49,29.57-4.09,3.26,1.8,5.46,5.23,6.73,10.49.95,3.91,1.46,7.48,1.92,10.62.67,4.61,1.24,8.58,2.77,9.3.68.33,2.23.27,5.72-1.83a1.5,1.5,0,1,1,1.55,2.57C291,350.56,288.92,351.35,287.2,351.35Z"/><path class="cls-7" d="M204.35,377a1.49,1.49,0,0,1-1.43-1.95c1.19-3.73,1.37-6.16.55-7.43-1.07-1.65-4.43-2-8.68-2.51a87.28,87.28,0,0,1-9.9-1.56c-16-3.68-14.17-18.53-11.44-41a1.5,1.5,0,1,1,3,.36c-2.85,23.41-3.65,34.79,9.13,37.74a82.83,82.83,0,0,0,9.57,1.49c5.24.6,9,1,10.86,3.87,1.38,2.13,1.31,5.2-.21,10A1.49,1.49,0,0,1,204.35,377Z"/><path class="cls-7" d="M290.78,236a1.5,1.5,0,0,1-.4-2.95c13.14-3.63,18.92-8,27.66-14.6,4.17-3.16,8.91-6.73,15.36-10.93a1.5,1.5,0,1,1,1.63,2.52c-6.36,4.14-11,7.68-15.18,10.8-8.7,6.57-15,11.31-28.67,15.11A1.83,1.83,0,0,1,290.78,236Z"/><path class="cls-7" d="M333.35,210.81a1.45,1.45,0,0,1-.88-2.6l9.9-7.6a1.46,1.46,0,0,1,2,.27,1.44,1.44,0,0,1-.27,2l-9.9,7.6A1.44,1.44,0,0,1,333.35,210.81Z"/><path class="cls-7" d="M345.37,212.88l-.2,0L331.51,211l-.79-12.62a1.45,1.45,0,1,1,2.89-.18l.64,10.25L345.56,210a1.45,1.45,0,0,1-.19,2.89Z"/><path class="cls-7" d="M330.43,208.4a3.64,3.64,0,1,1,3,4.18A3.64,3.64,0,0,1,330.43,208.4Z"/><path class="cls-7" d="M129.61,223.75a1.51,1.51,0,0,1-1-.37c-11-9.58-13.88-13.78-18.63-20.74-2.44-3.58-5.48-8-10.46-14.43a1.5,1.5,0,0,1,2.37-1.85c5,6.47,8.11,11,10.57,14.59,4.77,7,7.39,10.84,18.12,20.17a1.49,1.49,0,0,1,.15,2.11A1.47,1.47,0,0,1,129.61,223.75Z"/><path class="cls-7" d="M101.36,189.52a1.45,1.45,0,0,1-1.26-.73l-6.35-11.16a1.44,1.44,0,0,1,2.51-1.43l6.36,11.16a1.45,1.45,0,0,1-1.26,2.16Z"/><path class="cls-7" d="M102.62,190.13,88.1,188.66a1.45,1.45,0,0,1,.3-2.88L100.73,187,105,176.21a1.45,1.45,0,0,1,2.7,1.06Z"/><path class="cls-7" d="M104.93,188.16a3.64,3.64,0,1,0-4.22,3A3.63,3.63,0,0,0,104.93,188.16Z"/><path class="cls-8" d="M248.79,257.35c.24,3.66,5.9,6.28,12.65,5.84s12-3.76,11.8-7.42-5.9-6.28-12.65-5.84S248.56,253.68,248.79,257.35Z"/><path class="cls-8" d="M141.3,245c-.5,3.64,4.29,7.3,10.69,8.17s12-1.37,12.5-5-4.29-7.3-10.7-8.17S141.79,241.39,141.3,245Z"/><path class="cls-9" d="M183.18,265.18a64.6,64.6,0,0,0,8.06,13.75,33.05,33.05,0,0,0,4.58,4.73c4,3.39,7.77,4.43,10.79,4.5,5.36.11,10.21-2.76,14-7.13a37.45,37.45,0,0,0,8-15.14,1.31,1.31,0,0,0-.15-1.12,1.09,1.09,0,0,0-.88-.53l-43.36-.92a1.1,1.1,0,0,0-1,.61A1.38,1.38,0,0,0,183.18,265.18Z"/><path class="cls-10" d="M197.56,285a16.41,16.41,0,0,0,9.05,3.16c5.36.11,10.21-2.76,14-7.13-3.41-3.68-9-4.62-15.16-3C200.66,279.31,197.56,285,197.56,285Z"/><path class="cls-7" d="M192.85,242.69a1.06,1.06,0,0,1-1.06-.92c-1.3-9-9.45-9.13-11.91-9-5.43.39-11.25,3.69-11.25,8a1.08,1.08,0,1,1-2.15,0c0-5.66,6.88-9.67,13.25-10.12,6-.44,12.94,2.17,14.19,10.78a1.08,1.08,0,0,1-.91,1.22Z"/><path class="cls-7" d="M249,247.86a1.07,1.07,0,0,1-1.06-.92c-.7-4.84-4.68-8.46-10.16-9.23-4.66-.65-11.16.94-14.12,7.56a1.07,1.07,0,0,1-1.42.54,1.08,1.08,0,0,1-.54-1.42,15.17,15.17,0,0,1,16.37-8.81c6.46.9,11.16,5.24,12,11.06a1.08,1.08,0,0,1-.92,1.21Z"/></svg>