<svg id="Layer_1" data-name="Layer 1" xmlns="http://www.w3.org/2000/svg" viewBox="0 0 450 450"><defs><style>.cls-1{fill:#f1f2f0;}.cls-2{fill:#2e3030;}.cls-3{fill:#72d46f;}.cls-4{fill:#5abd53;}.cls-5{fill:#46a93f;}.cls-6{fill:#f89d0c;}.cls-7{fill:#fbb608;}.cls-8{fill:#f2f4f4;}.cls-9{fill:#181919;}.cls-10{fill:#f76234;}.cls-11{fill:#f9f2f2;}</style></defs><path class="cls-1" d="M293.5,401.4c0,12.53-31.23,22.7-69.75,22.7S154,413.93,154,401.4s31.22-22.71,69.74-22.71S293.5,388.86,293.5,401.4Z"/><path class="cls-2" d="M193.34,403.74c-3.83,0-8.27-2.07-13.44-6.27a1.51,1.51,0,0,1-.22-2.13,1.53,1.53,0,0,1,2.13-.22c6,4.89,10.82,6.58,14.29,5,9.06-4.06,10.2-28.95,11.21-50.91a1.51,1.51,0,1,1,3,.13c-1.1,23.95-2.24,48.72-13,53.54A9.73,9.73,0,0,1,193.34,403.74Z"/><path class="cls-2" d="M249.76,400.7a9.92,9.92,0,0,1-5.33-1.46c-10-6.18-7.93-30.88-5.89-54.77a1.51,1.51,0,1,1,3,.26c-1.87,21.9-4,46.73,4.47,51.94,3.23,2,8.22.95,14.82-3.11a1.52,1.52,0,0,1,1.59,2.58C257.47,399.18,253.28,400.7,249.76,400.7Z"/><path class="cls-3" d="M236.43,107.58c.5,34.34-6.53,62.29-15.69,62.43s-17-27.6-17.49-61.95,3.31-69.81,15.4-82.16C232.23,39.48,235.93,73.23,236.43,107.58Z"/><path class="cls-4" d="M195.32,135c-.6-3.74-1.35-7.64-2.37-11.61-5.8-22.72-18.4-37-39.56-52.87,22.71-3,45.6,6.51,58.52,25.35C222.46,111.25,225,127.15,222.79,140,221,150.8,198.77,156.55,195.32,135Z"/><path class="cls-4" d="M248.08,131.4c.12-3.78.36-7.75.84-11.85,2.77-23.4,13.09-40,31.42-59.84-22.13,1.77-42.91,15.77-53,36.85-8.22,17.22-8.7,33.29-5,45.44C225.47,152.14,247.44,153.18,248.08,131.4Z"/><path class="cls-5" d="M195.64,146.28c-2-2.77-4.31-5.62-6.84-8.47-14.47-16.25-31.78-24.15-57.58-31,19.65-8.25,44.48-6.81,63.91,4.56,15.87,9.28,24.6,21.06,27.75,31.73C225.52,152,207.47,162.24,195.64,146.28Z"/><path class="cls-5" d="M249,144.34c1.61-3,3.41-6.12,5.47-9.26,11.82-18,27.75-28,52.22-38.17-20.71-5.63-45.07-1-62.56,12.78-14.28,11.24-21.11,24-22.59,35C220.33,153.83,239.78,161.68,249,144.34Z"/><path class="cls-6" d="M311.94,271.77c.87,59.45-39.22,84.56-89.11,85.28s-90.68-23.2-91.54-82.65c-.68-46.19,20-98.52,54-120.39,9.76-6.28,23.4-7.92,34.53-8.08,11.57-.17,26.66.3,36.93,6.76C290.67,174.05,311.28,226.12,311.94,271.77Z"/><path class="cls-7" d="M311.87,269.12q-.19-6-.82-12.1l-24.73,25.44-26-25.29,25.29-26,25.33,24.61c-.55-4.92-1.3-9.86-2.26-14.78l-16.78-16.3,9.59-9.87q-1.68-4.69-3.61-9.24l-12.46,12.82-26-25.29L278.86,173q-2.87-3.6-5.95-6.84l-20,20.62-26-25.29,13.95-14.35A89.91,89.91,0,0,0,229.3,146l-8.93,9.19-9.11-8.85a82.72,82.72,0,0,0-11.17,1.73l14,13.59-25.29,26-20.15-19.57q-3,3.28-5.86,6.89L182.5,194.2l-25.29,26-13-12.61q-1.87,4.51-3.48,9.2l10.18,9.89-17.24,17.74a165.82,165.82,0,0,0-2.39,26.37l20.56,20-15.28,15.73a76.35,76.35,0,0,0,3.83,9l17.93-18.46,26,25.29-19.67,20.25a76,76,0,0,0,8.14,4.58l18-18.54,26,25.29-2.87,3c2.9.13,5.85.18,8.82.13,3.28,0,6.52-.2,9.71-.46l-2.9-2.82,25.29-26,18.22,17.7a76.52,76.52,0,0,0,7.93-4.88l-19.86-19.3,25.29-26,17.82,17.3a76.51,76.51,0,0,0,3.48-9.2l-15-14.58Zm-32.76-44.28-25.3,26-26-25.29,25.3-26Zm-31.58,32.52-25.3,26-26-25.29,25.3-26Zm-27-89.39,26,25.3-25.29,26-26-25.29ZM189,200.48l26,25.3-25.29,26-26-25.29ZM132.1,259l25.3-26,26,25.29-25.29,26Zm58.55,56.88-26-25.3,25.3-26,26,25.29Zm32.51,31.58-26-25.3,25.3-26,26,25.29ZM254.75,315,228.7,289.68l25.3-26,26,25.3Z"/><path class="cls-2" d="M309.94,259a1.5,1.5,0,0,1-1.19-.57,1.52,1.52,0,0,1,.25-2.13c14.68-11.54,21-19.31,30.54-33.46a1.51,1.51,0,1,1,2.51,1.69c-9.7,14.42-16.18,22.36-31.18,34.15A1.46,1.46,0,0,1,309.94,259Z"/><path class="cls-2" d="M341.2,224.34a1.57,1.57,0,0,1-1.38-2.33l5.64-10.41a1.58,1.58,0,1,1,2.78,1.5l-5.65,10.42A1.58,1.58,0,0,1,341.2,224.34Z"/><path class="cls-2" d="M339.92,225.15l-4.14-11.48a1.58,1.58,0,0,1,3-1.07l3.15,8.75L352,218.64a1.58,1.58,0,1,1,.82,3.05Z"/><path class="cls-2" d="M339,219.42a3.69,3.69,0,1,0,5.23,0A3.7,3.7,0,0,0,339,219.42Z"/><path class="cls-2" d="M108.85,323.19a1.51,1.51,0,0,1-1.08-2.57c10.84-11.06,17.56-19.53,24.21-35.12a1.51,1.51,0,1,1,2.78,1.19c-6.83,16-13.72,24.72-24.83,36.05A1.52,1.52,0,0,1,108.85,323.19Z"/><path class="cls-2" d="M99.15,332a1.58,1.58,0,0,1-1.06-2.74l8.85-8.11a1.59,1.59,0,0,1,2.23.1,1.57,1.57,0,0,1-.1,2.23l-8.85,8.11A1.63,1.63,0,0,1,99.15,332Z"/><path class="cls-2" d="M108.2,335.57h0a1.59,1.59,0,0,1-1.55-1.61l.2-10.63-9.4-1a1.58,1.58,0,0,1,.32-3.14L110,320.49,109.78,334A1.58,1.58,0,0,1,108.2,335.57Z"/><path class="cls-2" d="M111.11,323.7a3.7,3.7,0,1,0-4.6,2.48A3.7,3.7,0,0,0,111.11,323.7Z"/><path class="cls-8" d="M240.51,272.68A13.47,13.47,0,1,0,254,259.21,13.46,13.46,0,0,0,240.51,272.68Z"/><path class="cls-9" d="M246.38,272.89a10.06,10.06,0,1,0,10.06-10.06A10.07,10.07,0,0,0,246.38,272.89Z"/><path class="cls-8" d="M246.94,268a3.13,3.13,0,1,0,3.13-3.13A3.13,3.13,0,0,0,246.94,268Z"/><path class="cls-8" d="M180.65,274.5A13.47,13.47,0,1,0,194.12,261,13.47,13.47,0,0,0,180.65,274.5Z"/><path class="cls-9" d="M186,274.7a10.06,10.06,0,1,0,10.06-10.06A10.07,10.07,0,0,0,186,274.7Z"/><path class="cls-8" d="M186.57,269.76a3.13,3.13,0,1,0,3.14-3.13A3.13,3.13,0,0,0,186.57,269.76Z"/><path class="cls-10" d="M179.46,291.79c0,4.46-5.56,8.08-12.43,8.08s-12.43-3.62-12.43-8.08,5.57-8.1,12.43-8.1S179.46,287.32,179.46,291.79Z"/><path class="cls-10" d="M292.72,288.51c0,4.46-5.32,8.09-11.87,8.09S269,293,269,288.51s5.32-8.1,11.88-8.1S292.72,284,292.72,288.51Z"/><path class="cls-11" d="M198.14,301.66c7.69,22.84,44.2,22.25,55.9-3.82Z"/></svg>